<?xml version="1.0" encoding="utf-8"?>
<!-- Generator: Adobe Illustrator 17.0.0, SVG Export Plug-In . SVG Version: 6.00 Build 0)  -->
<!DOCTYPE svg PUBLIC "-//W3C//DTD SVG 1.1//EN" "http://www.w3.org/Graphics/SVG/1.1/DTD/svg11.dtd">
<svg version="1.1" xmlns="http://www.w3.org/2000/svg" xmlns:xlink="http://www.w3.org/1999/xlink" x="0px" y="0px" width="1000px"
	 height="400px" viewBox="0 300 1000 400" enable-background="new 0 0 1000 1000" xml:space="preserve">
<g id="Your_design">
	<path fill-rule="evenodd" clip-rule="evenodd" fill="#327182" d="M543.145,463.791c13.75,0,23.448,10.278,23.448,25.041
		c0,14.909-9.697,25.041-23.448,25.041c-13.896,0-23.594-10.132-23.594-25.041C519.551,474.068,529.249,463.791,543.145,463.791
		L543.145,463.791z M414.457,479.279v47.91h16.646v-44.147c0-12.54,8.687-19.252,19.421-19.252c10.733,0,19.42,6.714,19.42,19.252
		v44.147h16.645v-47.91C486.589,438.895,414.457,438.895,414.457,479.279L414.457,479.279z M832.338,469.582l6.079-12.303
		c-6.948-4.922-17.225-7.817-26.922-7.817c-14.764,0-28.371,6.658-28.371,22.291c-0.144,27.792,40.384,18.961,40.384,34.738
		c0,5.79-5.5,8.251-12.593,8.251c-8.395,0-19.106-3.618-25.764-9.553l-5.936,11.869c7.672,6.947,19.686,10.711,30.976,10.711
		c15.487,0,29.528-7.094,29.528-22.87c0.146-27.935-40.818-20.263-40.818-34.449c0-5.5,4.776-7.672,11.29-7.672
		C816.995,462.778,825.535,465.384,832.338,469.582L832.338,469.582z M728.709,463.791c13.75,0,23.449,10.278,23.449,25.041
		c0,14.909-9.699,25.041-23.449,25.041c-13.895,0-23.593-10.132-23.593-25.041C705.116,474.068,714.815,463.791,728.709,463.791
		L728.709,463.791z M728.709,449.607c-23.882,0-40.238,15.777-40.238,38.936c0,23.303,16.356,39.226,40.238,39.226
		c23.739,0,40.095-15.922,40.095-39.226C768.804,465.384,752.448,449.607,728.709,449.607L728.709,449.607z M655.426,453.08v74.109
		h16.5V453.08H655.426L655.426,453.08z M663.675,420.472c-5.5,0-9.697,4.197-9.697,9.986c0,5.646,4.197,9.843,9.697,9.843
		c5.501,0,9.698-4.197,9.698-9.843C673.373,424.669,669.176,420.472,663.675,420.472L663.675,420.472z M635.885,509.531
		c-4.487,2.171-8.106,3.328-11.579,3.328c-5.212,0-8.251-2.461-8.251-10.422v-36.909h22.194V453.08h-22.194v-23.356l-16.5,2.223
		c0,32.444,0,31.592,0,73.53c0,15.777,9.986,22.436,21.566,22.436c6.514,0,12.882-2.025,18.961-5.645L635.885,509.531
		L635.885,509.531z M543.145,449.607c-23.882,0-40.239,15.777-40.239,38.936c0,23.303,16.357,39.226,40.239,39.226
		c23.738,0,40.093-15.922,40.093-39.226C583.238,465.384,566.883,449.607,543.145,449.607z"/>
	<g>
		<path fill-rule="evenodd" clip-rule="evenodd" fill="#327182" d="M285.513,518.436l-84.515,3.907
			c-10.665,0.492-22.436,1.629-30.799-6.482c-3.96-3.84-6.423-9.22-6.423-15.174c0-8.499,6.758-15.825,13.671-19.181v-13.675
			c-11.952,6.866-19.943,19.76-20.002,34.532c-0.049,12.595,5.75,23.825,14.891,31.115c8.911,7.106,17.601,8.682,28.64,8.682
			h130.044c8.701,0,13.44-0.973,16.606-2.986c3.97-2.524,8.575-10.664,12.807-20.028c5.796-12.823,11.936-30.976,13.762-37.147
			c-16.646,18.291-35.608,27.826-59.889,32.723C305.32,516.534,294.724,518.011,285.513,518.436z"/>
		<path fill-rule="evenodd" clip-rule="evenodd" fill="#327182" d="M262.925,387.506l-3.327,140.772h9.494l-3.326-140.772
			c0-0.749-0.635-1.355-1.42-1.355C263.561,386.151,262.925,386.757,262.925,387.506z"/>
	</g>
	<path fill-rule="evenodd" clip-rule="evenodd" fill="#10A5B0" d="M313.92,509.924c39.292-30.078,43.998-79.095,1.729-100.44
		c-31.862-16.087-105.103-13.442-139.265-8.614c82.656,29.899,38.612,91.634,2.259,114.459c6.156-2.208,95.528-42.04,126.838-33.463
		C315.012,484.478,320.138,495.028,313.92,509.924z"/>
	<path fill-rule="evenodd" clip-rule="evenodd" fill="#14AFBA" d="M176.383,400.871c83.373,29.248,38.17,91.484,2.259,114.459
		l66.023-30.107c84.988-38.756,68.1-87.876-26.843-87.295C205.342,398.005,191.51,398.939,176.383,400.871z"/>
	<path fill-rule="evenodd" clip-rule="evenodd" fill="#1CBCC7" d="M176.383,400.871c75.864,31.839,33.515,93.09,2.259,114.459
		c70.009-30.308,125.489-113.826,35.877-116.95C203.914,398.01,191.273,398.766,176.383,400.871z"/>
</g>
<g id="Guides" display="none">
</g>
</svg>
